# This file uses centimeters as units for non-parametric coordinates.

mtllib rock-3-m.mtl
g default
v -66.010782 -62.223701 -3.558565
v -66.034874 -62.219634 -3.344083
v -66.303135 -62.218490 -3.355308
v -66.249188 -62.223460 -3.534343
v -65.949759 -62.103655 -3.553114
v -66.078721 -62.108759 -3.299377
v -66.298288 -62.094535 -3.340163
v -66.247601 -62.093985 -3.598917
v -65.988510 -62.227790 -3.465559
v -66.135232 -62.219302 -3.529112
v -65.965267 -62.158206 -3.572928
v -66.168506 -62.223480 -3.327861
v -65.972031 -62.164227 -3.312601
v -66.309516 -62.237432 -3.462605
v -66.392530 -62.166830 -3.365401
v -66.323181 -62.163875 -3.564115
v -65.999007 -62.087375 -3.445970
v -66.129533 -62.099348 -3.609266
v -66.197049 -62.096792 -3.277759
v -66.321885 -62.081706 -3.449780
v -66.147690 -62.243301 -3.456784
v -66.138405 -62.076874 -3.476132
v -65.969044 -62.142784 -3.433856
v -66.106310 -62.166766 -3.314214
v -66.392654 -62.169049 -3.457162
v -66.175295 -62.178348 -3.604402
v -65.993992 -62.224676 -3.403734
v -66.193540 -62.218061 -3.520964
v -65.937448 -62.131273 -3.568941
v -66.226002 -62.217830 -3.335322
v -66.004873 -62.144276 -3.308110
v -66.274676 -62.233951 -3.504470
v -66.337560 -62.123631 -3.328952
v -66.291501 -62.119423 -3.593904
v -66.024053 -62.077389 -3.360552
v -66.171570 -62.097313 -3.630876
v -66.236864 -62.097236 -3.317971
v -66.348725 -62.087527 -3.522444
v -65.989018 -62.231080 -3.514546
v -66.074979 -62.226316 -3.553440
v -65.983131 -62.194519 -3.579515
v -66.108784 -62.226178 -3.331652
v -65.993133 -62.193681 -3.319465
v -66.318681 -62.233815 -3.404812
v -66.381023 -62.201003 -3.373688
v -66.304813 -62.204578 -3.552320
v -65.960528 -62.090344 -3.510206
v -66.029753 -62.099811 -3.580730
v -66.155113 -62.101738 -3.271155
v -66.321786 -62.083907 -3.386121
v -66.216755 -62.239435 -3.454498
v -66.073258 -62.243242 -3.461865
v -66.119403 -62.230878 -3.504005
v -66.161263 -62.239466 -3.391163
v -66.175023 -62.075992 -3.387678
v -66.135872 -62.084400 -3.550191
v -66.053596 -62.076796 -3.479837
v -66.235823 -62.077672 -3.451887
v -65.955202 -62.148957 -3.349924
v -65.955255 -62.152010 -3.519732
v -65.954987 -62.187921 -3.457148
v -65.987685 -62.105180 -3.431008
v -66.301857 -62.171738 -3.321800
v -66.045267 -62.168037 -3.305891
v -66.165589 -62.196363 -3.300257
v -66.155352 -62.146824 -3.290540
v -66.409306 -62.180069 -3.523221
v -66.392294 -62.165769 -3.404857
v -66.377588 -62.227411 -3.476318
v -66.367780 -62.105179 -3.446226
v -66.261640 -62.162275 -3.591010
v -66.061874 -62.167104 -3.600410
v -66.122338 -62.128106 -3.633982
v -66.172399 -62.205936 -3.574149
v -66.239959 -62.234663 -3.391527
v -66.247010 -62.079060 -3.380941
v -65.977932 -62.105241 -3.352663
v -66.286998 -62.137668 -3.311525
v -66.403237 -62.120380 -3.520737
v -66.257979 -62.197125 -3.563060
v -66.199275 -62.233998 -3.510434
v -66.063113 -62.240442 -3.516522
v -66.087803 -62.241845 -3.397442
v -66.093904 -62.074942 -3.364390
v -66.025087 -62.078699 -3.522426
v -66.226948 -62.083026 -3.539700
v -65.943171 -62.193054 -3.376077
v -65.946753 -62.199293 -3.536365
v -65.931790 -62.122310 -3.521463
v -66.251326 -62.192967 -3.316066
v -66.071180 -62.196687 -3.310814
v -66.066693 -62.142889 -3.309714
v -66.347287 -62.219900 -3.531568
v -66.377878 -62.208679 -3.401995
v -66.360469 -62.110320 -3.376082
v -66.184801 -62.120352 -3.622437
v -66.025016 -62.126999 -3.603618
v -66.068415 -62.200561 -3.570598
vt 0.155028 0.344089
vt 0.206316 0.378186
vt 0.155630 0.402329
vt 0.099783 0.387655
vt 0.896175 0.282885
vt 0.854473 0.349296
vt 0.794976 0.248970
vt 0.870663 0.174892
vt 0.949240 0.587705
vt 0.944083 0.694636
vt 0.905653 0.682602
vt 0.916733 0.604517
vt 0.336809 0.082005
vt 0.369246 0.000842
vt 0.489191 0.000000
vt 0.460672 0.063535
vt 0.485748 0.254952
vt 0.512673 0.310590
vt 0.481603 0.323059
vt 0.447322 0.276247
vt 0.276846 0.583529
vt 0.215363 0.578539
vt 0.223692 0.502410
vt 0.270084 0.523882
vt 0.288525 0.695621
vt 0.226456 0.694739
vt 0.220811 0.635843
vt 0.266533 0.646047
vt 0.149628 0.688747
vt 0.060049 0.668982
vt 0.053708 0.620010
vt 0.140662 0.629249
vt 0.046020 0.277128
vt 0.115533 0.299946
vt 0.042023 0.402498
vt 0.011393 0.383384
vt 0.133867 0.094672
vt 0.226136 0.127633
vt 0.165692 0.199396
vt 0.116225 0.149680
vt 0.273683 0.187557
vt 0.335575 0.267841
vt 0.258354 0.321530
vt 0.206193 0.274302
vt 0.422948 0.654063
vt 0.520455 0.684734
vt 0.477461 0.726331
vt 0.404599 0.713241
vt 0.422729 0.459207
vt 0.529375 0.479105
vt 0.539575 0.580737
vt 0.439840 0.553878
vt 0.744126 0.814485
vt 0.672331 0.787452
vt 0.683844 0.711964
vt 0.731678 0.707183
vt 0.016271 0.536299
vt 0.006598 0.482318
vt 0.054401 0.402498
vt 0.090851 0.431859
vt 0.857058 0.070133
vt 0.855242 0.125920
vt 0.818683 0.137473
vt 0.786060 0.070157
vt 0.829103 0.182611
vt 0.720806 0.251159
vt 0.693981 0.268226
vt 0.758736 0.168010
vt 0.408067 0.318081
vt 0.348488 0.225548
vt 0.431026 0.176751
vt 0.834672 0.401576
vt 0.821728 0.494375
vt 0.758928 0.488146
vt 0.747834 0.361119
vt 0.853441 0.628842
vt 0.844101 0.700647
vt 0.766741 0.707183
vt 0.766456 0.640000
vt 0.554998 0.057463
vt 0.491069 0.166304
vt 0.661203 0.071636
vt 0.642437 0.169965
vt 0.565426 0.199969
vt 0.608937 0.072162
vt 0.628288 0.255903
vt 0.619708 0.321108
vt 0.560004 0.310321
vt 0.556413 0.271543
vt 0.934356 0.187628
vt 0.907061 0.133559
vt 0.622627 0.581780
vt 0.617335 0.678426
vt 0.662917 0.562066
vt 0.672331 0.661064
vt 0.939564 0.506329
vt 0.869574 0.490922
vt 0.791582 0.866218
vt 0.744126 0.821215
vt 0.752056 0.707183
vt 0.791426 0.711743
vt 1.000000 0.606532
vt 0.999879 0.706758
vt 0.672331 0.596657
vt 0.677773 0.459778
vt 0.674914 0.687648
vt 0.387737 0.801509
vt 0.336809 0.833560
vt 0.336920 0.785916
vt 0.384519 0.726331
vt 0.506205 0.350977
vt 0.448079 0.354288
vt 0.559475 0.342029
vt 0.609960 0.361119
vt 0.324683 0.722893
vt 0.278588 0.749240
vt 0.320949 0.673747
vt 0.218381 0.752553
vt 0.143231 0.752483
vt 0.069266 0.722735
vt 0.808347 0.361119
vt 0.056221 0.145884
vt 0.000000 0.241327
vt 0.085645 0.065345
vt 0.116277 0.014773
vt 0.187902 0.035191
vt 0.273048 0.064123
vt 0.316518 0.068429
vt 0.336809 0.140426
vt 0.340137 0.610197
vt 0.336809 0.674909
vt 0.339988 0.536299
vt 0.336833 0.476818
vt 0.353162 0.419686
vt 0.429528 0.400325
vt 0.517650 0.412671
vt 0.604166 0.482239
vt 0.586459 0.423461
vt 0.646477 0.441109
vt 0.670954 0.491413
vt 0.000000 0.608449
vt 0.694133 0.143704
vt 0.736508 0.092307
vt 0.012308 0.682984
vt 0.019832 0.742597
vt 0.913859 0.076969
vt 0.232244 0.440506
vt 0.291247 0.454530
vt 0.685316 0.388716
vt 0.130148 0.436240
vt 0.867108 0.417288
vt 0.563922 0.000091
vt 0.582099 0.007382
vt 0.207942 0.000000
vt 0.293309 0.025246
vt 0.579472 0.365264
vt 0.639569 0.392860
vt 0.477201 0.361119
vt 0.693981 0.150197
vt 0.693822 0.237100
vt 0.668575 0.311882
vt 0.447322 0.276247
vt 0.431026 0.176751
vt 0.460672 0.063535
vt 0.215363 0.578539
vt 0.137636 0.563411
vt 0.152906 0.498683
vt 0.223692 0.502410
vt 0.220811 0.635843
vt 0.140662 0.629249
vt 0.137636 0.563411
vt 0.215363 0.578539
vt 0.140662 0.629249
vt 0.053708 0.620010
vt 0.058285 0.569867
vt 0.137636 0.563411
vt 0.115533 0.299946
vt 0.155028 0.344089
vt 0.099783 0.387655
vt 0.042023 0.402498
vt 0.165692 0.199396
vt 0.206193 0.274302
vt 0.155028 0.344089
vt 0.115533 0.299946
vt 0.206193 0.274302
vt 0.258354 0.321530
vt 0.206316 0.378186
vt 0.155028 0.344089
vt 0.896175 0.282885
vt 0.870663 0.174892
vt 0.539575 0.580737
vt 0.520455 0.684734
vt 0.622627 0.581780
vt 0.617335 0.678426
vt 0.949240 0.587705
vt 0.916733 0.604517
vt 0.944083 0.694636
vt 0.949240 0.587705
vt 0.348488 0.225548
vt 0.336809 0.082005
vt 0.460672 0.063535
vt 0.431026 0.176751
vt 0.758928 0.488146
vt 0.766456 0.640000
vt 0.766456 0.640000
vt 0.766741 0.707183
vt 0.672331 0.596657
vt 0.491069 0.166304
vt 0.485748 0.254952
vt 0.447322 0.276247
vt 0.431026 0.176751
vt 0.565426 0.199969
vt 0.556413 0.271543
vt 0.485748 0.254952
vt 0.491069 0.166304
vt 0.512673 0.310590
vt 0.481603 0.323059
vt 0.560004 0.310321
vt 0.506205 0.350977
vt 0.512673 0.310590
vt 0.266533 0.646047
vt 0.220811 0.635843
vt 0.215363 0.578539
vt 0.276846 0.583529
vt 0.619708 0.321108
vt 0.559475 0.342029
vt 0.560004 0.310321
vt 0.288525 0.695621
vt 0.278588 0.749240
vt 0.226456 0.694739
vt 0.288525 0.695621
vt 0.226456 0.694739
vt 0.149628 0.688747
vt 0.140662 0.629249
vt 0.220811 0.635843
vt 0.218381 0.752553
vt 0.149628 0.688747
vt 0.226456 0.694739
vt 0.143231 0.752483
vt 0.060049 0.668982
vt 0.149628 0.688747
vt 0.854473 0.349296
vt 0.720806 0.251159
vt 0.794976 0.248970
vt 0.116225 0.149680
vt 0.046020 0.277128
vt 0.116225 0.149680
vt 0.165692 0.199396
vt 0.115533 0.299946
vt 0.046020 0.277128
vt 0.133867 0.094672
vt 0.116225 0.149680
vt 0.056221 0.145884
vt 0.133867 0.094672
vt 0.085645 0.065345
vt 0.187902 0.035191
vt 0.226136 0.127633
vt 0.133867 0.094672
vt 0.226136 0.127633
vt 0.273683 0.187557
vt 0.206193 0.274302
vt 0.165692 0.199396
vt 0.273048 0.064123
vt 0.273683 0.187557
vt 0.226136 0.127633
vt 0.316518 0.068429
vt 0.335575 0.267841
vt 0.273683 0.187557
vt 0.422948 0.654063
vt 0.404599 0.713241
vt 0.439840 0.553878
vt 0.422948 0.654063
vt 0.340137 0.610197
vt 0.439840 0.553878
vt 0.539575 0.580737
vt 0.520455 0.684734
vt 0.422948 0.654063
vt 0.422729 0.459207
vt 0.439840 0.553878
vt 0.339988 0.536299
vt 0.422729 0.459207
vt 0.336833 0.476818
vt 0.429528 0.400325
vt 0.529375 0.479105
vt 0.422729 0.459207
vt 0.529375 0.479105
vt 0.622627 0.581780
vt 0.539575 0.580737
vt 0.517650 0.412671
vt 0.604166 0.482239
vt 0.529375 0.479105
vt 0.586459 0.423461
vt 0.604166 0.482239
vt 0.058285 0.569867
vt 0.016271 0.536299
vt 0.090851 0.431859
vt 0.082613 0.506661
vt 0.053708 0.620010
vt 0.016271 0.536299
vt 0.058285 0.569867
vt 0.786060 0.070157
vt 0.818683 0.137473
vt 0.060049 0.668982
vt 0.000000 0.608449
vt 0.053708 0.620010
vt 0.069266 0.722735
vt 0.012308 0.682984
vt 0.060049 0.668982
vt 0.907061 0.133559
vt 0.855242 0.125920
vt 0.857058 0.070133
vt 0.855242 0.125920
vt 0.829103 0.182611
vt 0.758736 0.168010
vt 0.818683 0.137473
vt 0.907061 0.133559
vt 0.870663 0.174892
vt 0.829103 0.182611
vt 0.855242 0.125920
vt 0.870663 0.174892
vt 0.794976 0.248970
vt 0.720806 0.251159
vt 0.829103 0.182611
vt 0.448079 0.354288
vt 0.408067 0.318081
vt 0.447322 0.276247
vt 0.481603 0.323059
vt 0.223692 0.502410
vt 0.270084 0.523882
vt 0.747834 0.361119
vt 0.758928 0.488146
vt 0.677773 0.459778
vt 0.152906 0.498683
vt 0.232244 0.440506
vt 0.223692 0.502410
vt 0.082613 0.506661
vt 0.090851 0.431859
vt 0.130148 0.436240
vt 0.152906 0.498683
vt 0.869574 0.490922
vt 0.821728 0.494375
vt 0.834672 0.401576
vt 0.821728 0.494375
vt 0.853441 0.628842
vt 0.766456 0.640000
vt 0.758928 0.488146
vt 0.869574 0.490922
vt 0.916733 0.604517
vt 0.853441 0.628842
vt 0.821728 0.494375
vt 0.916733 0.604517
vt 0.905653 0.682602
vt 0.844101 0.700647
vt 0.853441 0.628842
vt 0.554998 0.057463
vt 0.460672 0.063535
vt 0.489191 0.000000
vt 0.608937 0.072162
vt 0.554998 0.057463
vt 0.563922 0.000091
vt 0.608937 0.072162
vt 0.565426 0.199969
vt 0.491069 0.166304
vt 0.554998 0.057463
vt 0.187902 0.035191
vt 0.273048 0.064123
vt 0.646477 0.441109
vt 0.586459 0.423461
vt 0.586459 0.423461
vt 0.517650 0.412671
vt 0.579472 0.365264
vt 0.642437 0.169965
vt 0.628288 0.255903
vt 0.556413 0.271543
vt 0.565426 0.199969
vt 0.628288 0.255903
vt 0.642437 0.169965
vt 0.693822 0.237100
vt 0.619708 0.321108
vt 0.628288 0.255903
vn -0.122546 -0.873948 0.470316
vn -0.213736 -0.816574 0.536212
vn -0.051773 -0.981757 0.182956
vn -0.185892 -0.971213 0.148963
vn -0.266252 0.950610 0.159532
vn -0.222954 0.830559 0.510355
vn -0.045518 0.988507 0.144161
vn -0.222508 0.742398 0.631929
vn 0.221236 0.949963 0.220512
vn 0.276685 0.641027 0.715912
vn 0.636046 0.690267 0.344930
vn 0.340727 0.392069 0.854510
vn -0.205355 0.098505 0.973718
vn -0.495120 0.309157 0.811960
vn -0.793753 0.466608 -0.390172
vn -0.274510 0.932917 -0.233047
vn -0.441070 0.174919 -0.880262
vn -0.179382 0.859862 -0.477975
vn -0.028488 -0.870337 -0.491631
vn 0.024709 -0.830578 -0.556354
vn -0.153255 -0.731297 -0.664619
vn -0.138138 -0.619129 -0.773044
vn 0.013518 -0.957503 -0.288106
vn -0.037660 -0.999226 -0.011327
vn -0.053545 -0.972471 -0.226788
vn -0.109123 -0.993882 0.017068
vn 0.001651 -0.989584 -0.143950
vn 0.088627 -0.995911 -0.017525
vn -0.053460 -0.967307 -0.247910
vn -0.019645 -0.997610 -0.066241
vn 0.089182 -0.986341 0.138485
vn 0.067775 -0.882491 0.465420
vn -0.045669 -0.987194 0.152849
vn -0.078787 -0.894724 0.439615
vn -0.036689 0.996246 0.078406
vn -0.321839 0.713971 0.621824
vn 0.019662 0.989340 0.144292
vn 0.141731 0.570004 0.809325
vn 0.013282 0.985392 -0.169783
vn -0.011701 0.998711 -0.049393
vn 0.077797 0.979840 -0.184014
vn 0.073311 0.997286 0.006785
vn -0.031756 0.992982 -0.113921
vn -0.033760 0.998885 -0.032983
vn -0.189098 0.981946 0.004861
vn 0.872473 -0.458672 0.168552
vn 0.919309 0.283091 0.273368
vn 0.389303 -0.648105 0.654525
vn 0.594656 -0.081458 0.799843
vn 0.878554 -0.450804 -0.157855
vn 0.979375 -0.191280 0.065085
vn 0.973292 -0.226136 0.039555
vn 0.940723 0.330133 0.077798
vn 0.976048 0.033735 0.214925
vn 0.477416 0.873354 0.096580
vn 0.810248 0.561983 0.166352
vn 0.279279 0.956570 0.083533
vn -0.220425 -0.527397 0.820528
vn -0.289350 -0.318041 0.902844
vn -0.520573 -0.642013 0.562871
vn -0.763709 -0.000288 0.645560
vn 0.011333 -0.104649 0.994445
vn 0.040556 -0.163002 0.985792
vn 0.092593 -0.450073 0.888179
vn -0.040355 0.083709 0.995673
vn 0.084789 -0.236589 0.967903
vn -0.019606 -0.526520 0.849936
vn -0.806618 -0.255228 -0.533129
vn -0.429664 -0.242542 -0.869806
vn -0.279128 -0.773713 -0.568731
vn -0.980583 0.192244 0.038714
vn -0.982290 0.012148 0.186975
vn -0.671837 -0.731903 0.113812
vn -0.543878 -0.838936 0.019575
vn -0.705731 0.652939 0.274981
vn -0.734302 0.662043 0.149995
vn -0.209536 -0.166469 -0.963526
vn -0.269881 -0.422031 -0.865479
vn 0.314268 0.178890 -0.932327
vn 0.154659 -0.502539 -0.850609
vn 0.088186 -0.072152 -0.993487
vn -0.074633 -0.565795 -0.821162
vn -0.177351 -0.785831 -0.592466
vn -0.048747 -0.926717 -0.372585
vn -0.001267 -0.705754 -0.708456
vn -0.041047 -0.870402 -0.490627
vn 0.393403 -0.918676 -0.035605
vn 0.173900 -0.820516 -0.544529
vn 0.418130 -0.906699 0.055359
vn 0.360654 -0.926287 0.109179
vn 0.222479 -0.900567 0.373474
vn 0.154725 0.861921 -0.482859
vn 0.387532 0.811834 -0.436744
vn 0.141410 0.864327 -0.482641
vn 0.006364 0.851468 -0.524368
vn 0.322814 -0.421906 -0.847223
vn 0.581707 -0.229197 -0.780439
vn 0.691964 0.026138 -0.721459
s 1
g Rock1_Mesh2
usemtl Material
f 30/2/1 3/3/2 75/1/3
f 75/1/3 3/3/2 44/4/4
f 50/6/5 7/7/6 76/5/7
f 76/5/7 7/7/6 37/8/8
f 35/10/9 6/11/10 77/9/11
f 77/9/11 6/11/10 31/12/12
f 37/14/8 7/15/6 78/13/13
f 78/13/13 7/15/6 33/16/14
f 79/17/15 38/18/16 34/20/17
f 34/20/17 38/18/16 8/19/18
f 28/22/19 4/23/20 80/21/21
f 80/21/21 4/23/20 46/24/22
f 81/25/23 51/26/24 32/28/25
f 32/28/25 51/26/24 14/27/26
f 82/29/27 52/30/28 53/32/29
f 53/32/29 52/30/28 21/31/30
f 83/33/31 42/34/32 54/36/33
f 54/36/33 42/34/32 12/35/34
f 55/38/35 19/39/36 84/37/37
f 84/37/37 19/39/36 49/40/38
f 56/42/39 22/43/40 85/41/41
f 85/41/41 22/43/40 57/44/42
f 86/45/43 38/46/16 58/48/44
f 58/48/44 38/46/16 20/47/45
f 87/49/46 59/50/47 43/52/48
f 43/52/48 59/50/47 13/51/49
f 88/53/50 60/54/51 61/56/52
f 61/56/52 60/54/51 23/55/53
f 89/57/54 47/58/55 62/60/56
f 62/60/56 47/58/55 17/59/57
f 90/61/58 63/62/59 45/64/60
f 45/64/60 63/62/59 15/63/61
f 64/66/62 24/67/63 91/65/64
f 91/65/64 24/67/63 65/68/65
f 92/69/66 49/70/38 66/162/67
f 66/162/67 49/70/38 19/71/36
f 67/73/68 16/74/69 93/72/70
f 93/72/70 16/74/69 46/75/22
f 68/77/71 25/78/72 94/76/73
f 94/76/73 25/78/72 69/79/74
f 95/80/75 50/81/5 70/164/76
f 70/164/76 50/81/5 20/163/45
f 96/82/77 71/83/78 34/85/17
f 34/85/17 71/83/78 16/84/69
f 97/86/79 72/87/80 73/89/81
f 73/89/81 72/87/80 26/88/82
f 40/166/83 10/167/84 98/165/85
f 98/165/85 10/167/84 74/168/86
f 75/170/3 44/171/4 51/169/24
f 51/169/24 44/171/4 14/172/26
f 21/173/30 54/174/33 51/176/24
f 51/176/24 54/174/33 75/175/3
f 12/178/34 30/179/1 54/177/33
f 54/177/33 30/179/1 75/180/3
f 76/182/7 37/183/8 55/181/35
f 55/181/35 37/183/8 19/184/36
f 22/185/40 58/186/44 55/188/35
f 55/188/35 58/186/44 76/187/7
f 58/90/44 20/189/45 76/91/7
f 76/91/7 20/189/45 50/190/5
f 77/92/11 31/93/12 59/191/47
f 59/191/47 31/93/12 13/192/49
f 62/94/56 77/95/11 23/193/53
f 23/193/53 77/95/11 59/194/47
f 17/195/57 35/196/9 62/96/56
f 62/96/56 35/196/9 77/97/11
f 78/99/13 33/100/14 63/98/59
f 63/98/59 33/100/14 15/101/61
f 24/102/63 66/103/67 63/198/59
f 63/198/59 66/103/67 78/197/13
f 19/200/36 37/201/8 66/199/67
f 66/199/67 37/201/8 78/202/13
f 67/203/68 79/204/15 16/105/69
f 16/105/69 79/204/15 34/104/17
f 70/206/76 79/106/15 25/205/72
f 25/205/72 79/106/15 67/207/68
f 20/209/45 38/210/16 70/208/76
f 70/208/76 38/210/16 79/211/15
f 71/212/78 80/213/21 16/215/69
f 16/215/69 80/213/21 46/214/22
f 74/108/86 80/109/21 26/107/82
f 26/107/82 80/109/21 71/110/78
f 10/111/84 28/112/19 74/216/86
f 74/216/86 28/112/19 80/217/21
f 28/218/19 81/113/23 4/220/20
f 4/220/20 81/113/23 32/219/25
f 53/222/29 81/223/23 10/221/84
f 10/221/84 81/223/23 28/224/19
f 53/225/29 21/114/30 81/227/23
f 81/227/23 21/114/30 51/226/24
f 40/115/83 82/116/27 10/117/84
f 10/117/84 82/116/27 53/228/29
f 39/118/87 82/230/27 1/229/88
f 1/229/88 82/230/27 40/231/83
f 39/232/87 9/233/89 82/235/27
f 82/235/27 9/233/89 52/234/28
f 52/236/28 83/119/31 21/238/30
f 21/238/30 83/119/31 54/237/33
f 9/239/89 27/120/90 52/241/28
f 52/241/28 27/120/90 83/240/31
f 27/242/90 2/121/91 83/244/31
f 83/244/31 2/121/91 42/243/32
f 35/122/9 84/245/37 6/123/10
f 6/123/10 84/245/37 49/246/38
f 57/248/42 84/249/37 17/247/57
f 17/247/57 84/249/37 35/250/9
f 57/124/42 22/251/40 84/253/37
f 84/253/37 22/251/40 55/252/35
f 85/126/41 57/254/42 47/125/55
f 47/125/55 57/254/42 17/255/57
f 48/127/92 85/257/41 5/256/93
f 5/256/93 85/257/41 47/258/55
f 18/260/94 56/261/39 48/259/92
f 48/259/92 56/261/39 85/262/41
f 56/263/39 86/128/43 22/265/40
f 22/265/40 86/128/43 58/264/44
f 18/266/94 36/129/95 56/268/39
f 56/268/39 36/129/95 86/267/43
f 36/130/95 8/269/18 86/131/43
f 86/131/43 8/269/18 38/270/16
f 27/132/90 87/271/46 2/273/91
f 2/273/91 87/271/46 43/272/48
f 9/274/89 61/275/52 27/277/90
f 27/277/90 61/275/52 87/276/46
f 61/133/52 23/278/53 87/280/46
f 87/280/46 23/278/53 59/279/47
f 88/135/50 61/281/52 39/134/87
f 39/134/87 61/281/52 9/282/89
f 41/136/96 88/284/50 1/283/88
f 1/283/88 88/284/50 39/285/87
f 41/286/96 11/137/97 88/288/50
f 88/288/50 11/137/97 60/287/51
f 60/289/51 89/138/54 23/291/53
f 23/291/53 89/138/54 62/290/56
f 11/292/97 29/139/98 60/293/51
f 60/293/51 29/139/98 89/140/54
f 29/294/98 5/295/93 89/297/54
f 89/297/54 5/295/93 47/296/55
f 30/298/1 90/141/58 3/300/2
f 3/300/2 90/141/58 45/299/60
f 12/301/34 65/302/65 30/143/1
f 30/143/1 65/302/65 90/142/58
f 24/144/63 63/304/59 65/303/65
f 65/303/65 63/304/59 90/305/58
f 91/145/64 65/307/65 42/306/32
f 42/306/32 65/307/65 12/308/34
f 43/309/48 91/310/64 2/146/91
f 2/146/91 91/310/64 42/311/32
f 13/313/49 64/314/62 43/312/48
f 43/312/48 64/314/62 91/315/64
f 64/316/62 92/317/66 24/319/63
f 24/319/63 92/317/66 66/318/67
f 13/320/49 31/321/12 64/323/62
f 64/323/62 31/321/12 92/322/66
f 31/324/12 6/325/10 92/327/66
f 92/327/66 6/325/10 49/326/38
f 93/147/70 46/148/22 32/328/25
f 32/328/25 46/148/22 4/329/20
f 14/330/26 69/331/74 32/149/25
f 32/149/25 69/331/74 93/332/70
f 25/150/72 67/334/68 69/333/74
f 69/333/74 67/334/68 93/335/70
f 44/336/4 94/337/73 14/339/26
f 14/339/26 94/337/73 69/338/74
f 3/151/2 45/340/60 44/342/4
f 44/342/4 45/340/60 94/341/73
f 15/344/61 68/345/71 45/343/60
f 45/343/60 68/345/71 94/346/73
f 95/348/75 70/349/76 68/347/71
f 68/347/71 70/349/76 25/350/72
f 33/352/14 95/353/75 15/351/61
f 15/351/61 95/353/75 68/354/71
f 33/152/14 7/355/6 95/357/75
f 95/357/75 7/355/6 50/356/5
f 36/153/95 96/358/77 8/360/18
f 8/360/18 96/358/77 34/359/17
f 73/362/81 96/363/77 18/361/94
f 18/361/94 96/363/77 36/364/95
f 73/365/81 26/154/82 96/366/77
f 96/366/77 26/154/82 71/155/78
f 48/367/92 97/368/79 18/157/94
f 18/157/94 97/368/79 73/156/81
f 5/369/93 29/370/98 48/371/92
f 48/371/92 29/370/98 97/158/79
f 29/372/98 11/373/97 97/375/79
f 97/375/79 11/373/97 72/374/80
f 72/159/80 98/160/85 26/377/82
f 26/377/82 98/160/85 74/376/86
f 11/378/97 41/161/96 72/380/80
f 72/380/80 41/161/96 98/379/85
f 41//96 1//88 98//85
f 98//85 1//88 40//83
